<?xml version="1.0" encoding="UTF-8"?>
<!DOCTYPE svg PUBLIC "-//W3C//DTD SVG 1.1//EN" "http://www.w3.org/Graphics/SVG/1.1/DTD/svg11.dtd">
<!-- Creator: CorelDRAW X8 -->
<svg xmlns="http://www.w3.org/2000/svg" xml:space="preserve" width="1000px" height="1000px" version="1.1" style="shape-rendering:geometricPrecision; text-rendering:geometricPrecision; image-rendering:optimizeQuality; fill-rule:evenodd; clip-rule:evenodd"
viewBox="0 0 1000 1000"
 xmlns:xlink="http://www.w3.org/1999/xlink">
 <defs>
  <style type="text/css">
   <![CDATA[
    .fil0 {fill:#287BEB}
   ]]>
  </style>
 </defs>
 <g id="Слой_x0020_1">
  <metadata id="CorelCorpID_0Corel-Layer"/>
  <g id="_2457465773904">
   <path class="fil0" d="M6 291c0,11 -1,25 1,36l1 3c1,6 2,24 4,34 1,7 2,11 3,17 1,3 1,5 2,7 7,36 25,80 43,113 21,39 45,77 72,113 11,15 8,12 27,12l202 -1c13,0 25,13 26,18l3 0c2,-10 3,-21 4,-32l9 -66c0,-4 1,-7 2,-11l9 -66c0,-5 0,-7 1,-11 1,-4 1,-7 1,-12 2,-7 2,-13 3,-22l9 -66c1,-7 5,-38 7,-43 5,-15 24,-14 29,0 4,9 3,23 5,33 3,23 4,46 7,68 3,28 5,57 9,85l5 48c1,25 5,47 7,73l3 24c1,7 2,17 2,25 5,-1 6,-7 8,-11l4 -5c1,-3 2,-4 3,-7 15,-27 20,-21 43,-11 7,3 29,13 35,14 12,-23 28,-49 41,-72l17 -29c9,-15 26,-10 31,5 1,4 1,8 2,12 3,8 15,55 15,59l144 0c8,0 13,-1 21,-1 9,-14 21,-26 30,-40 7,-12 16,-23 23,-35l31 -53c1,-2 1,-3 2,-4 8,-18 17,-36 23,-55 7,-22 19,-60 20,-84 0,-6 2,-6 2,-11l0 -59c0,-5 -5,-30 -7,-36 -7,-26 -16,-49 -31,-72 -1,-2 -1,-3 -2,-5l-18 -25c-2,-1 -3,-2 -4,-4l-22 -22c-1,-2 -2,-2 -3,-4l-8 -7c-13,-10 -26,-18 -40,-26l-52 -22c-8,-2 -16,-4 -24,-5 -3,-1 -3,-1 -5,-2l-21 -2c-14,0 -42,-2 -55,1 -4,1 -6,1 -10,1 -11,2 -38,9 -49,14 -16,6 -31,13 -46,22l-28 20c-2,3 -3,3 -6,5 -6,6 -15,15 -21,22 -2,2 -3,3 -5,5 -2,2 -3,4 -5,6l-18 24c-5,10 -5,12 -16,12 -5,0 -10,-11 -12,-15 -7,-12 -15,-22 -23,-33l-14 -14c-2,-3 -4,-4 -6,-7 -3,-3 -5,-3 -8,-6l-11 -10c-2,-1 -2,-2 -4,-3 -11,-8 -22,-15 -34,-22 -6,-3 -12,-6 -18,-9 -20,-8 -45,-17 -66,-18 -4,0 -7,-1 -11,-2 -4,0 -35,-2 -39,-1 0,0 -26,2 -36,4 -31,7 -62,18 -90,35 -22,15 -42,31 -59,52 -9,9 -17,20 -24,31 -10,19 -20,37 -27,57l-8 34c-1,4 -1,8 -2,12 -1,4 0,9 -1,13 -1,4 -1,0 -2,5 0,0 0,1 0,2 0,0 0,2 0,3z"/>
   <path class="fil0" d="M168 657c2,8 36,43 41,48 2,3 2,3 4,6 13,14 27,27 40,41l71 68c2,2 3,3 5,5l123 107c11,9 22,19 33,27 0,1 3,2 3,2 4,2 9,1 12,-1l16 -14c2,-2 3,-3 5,-5 2,-1 2,-1 3,-2 20,-14 44,-36 64,-51l26 -21c0,0 0,0 1,0l6 -6c1,-1 2,-1 3,-2 0,0 0,0 0,-1 1,0 1,0 1,0l82 -71c15,-11 39,-34 52,-48l13 -13c1,0 1,0 1,0l14 -14c1,-1 1,-1 3,-2 8,-10 21,-22 29,-31 4,-5 17,-17 18,-22 -8,-2 -58,-2 -69,-1 -21,3 -55,1 -79,1 -18,0 -18,-24 -23,-40 -1,-5 -2,-13 -4,-17 -5,3 -22,36 -27,44l-20 34c-11,15 -24,6 -43,-3 -5,-2 -9,-3 -14,-5 -4,-2 -9,-4 -13,-6l-21 35c-4,8 -16,31 -21,35 -7,8 -18,7 -24,-2 -5,-6 -6,-43 -7,-53 -1,-6 -2,-10 -2,-18 -2,-16 -5,-36 -6,-53 0,-5 -1,-12 -2,-18 -2,-11 -2,-25 -4,-36 -1,-6 -1,-13 -2,-18l-3 -27c-2,-16 -2,-32 -5,-46l-17 113c-2,18 -3,36 -7,53 0,3 -1,5 -1,7 0,3 0,5 -1,8l-4 30c0,6 -1,9 -3,14 -3,3 -7,6 -12,7 -8,1 -16,-8 -20,-13 -28,-28 -19,-25 -43,-25l-172 0z"/>
  </g>
 </g>
</svg>
